<svg xmlns="http://www.w3.org/2000/svg" width="52.84" height="60.91" viewBox="0 0 52.84 60.91">
  <defs>
    <style>
      .cls-1 {
        fill: #8787ff;
        fill-rule: evenodd;
      }
    </style>
  </defs>
  <path id="cat" class="cls-1" d="M1461.06,1678.47a2.225,2.225,0,1,1-2.25,2.22A2.243,2.243,0,0,1,1461.06,1678.47Zm18.8,26.6a17.679,17.679,0,0,1-2.66-9.08c0-6.9,3.88-9.33,4.04-9.42a1.194,1.194,0,0,0,.42-1.64,1.211,1.211,0,0,0-1.65-.41c-0.22.12-5.22,3.14-5.22,11.47a19.875,19.875,0,0,0,2.94,10.2c0.94,1.74,1.68,3.12,1.68,4.7a3.163,3.163,0,0,1-.72,2.37,1.6,1.6,0,0,1-1.11.36,1.1,1.1,0,0,0-.18-0.02h-4.44a5.029,5.029,0,0,0,.82-2.76v-53.73a1.206,1.206,0,0,0-.88-1.15,1.226,1.226,0,0,0-1.36.54l-5.9,9.63c-1.81-.03-7.12-0.07-23.03-0.07h-5.9l-5.43-10.32a1.216,1.216,0,0,0-1.36-.61,1.2,1.2,0,0,0-.92,1.16v54.55a5.188,5.188,0,0,0,5.21,5.15h43.13c0.08,0,.19.01,0.33,0.01a4,4,0,0,0,2.59-.93,5.222,5.222,0,0,0,1.57-4.18C1481.83,1708.72,1480.87,1706.95,1479.86,1705.07Zm-38.14-19.16a5.215,5.215,0,1,1,5.28-5.22A5.258,5.258,0,0,1,1441.72,1685.91Zm12.52,6.04h-1.2l-0.13,2.24a1.622,1.622,0,0,1-1.63,1.51h-0.09a1.606,1.606,0,0,1-1.53-1.7l0.12-2.05h-1.24a1.605,1.605,0,1,1,0-3.21h5.7A1.605,1.605,0,1,1,1454.24,1691.95Zm6.82-6.04a5.216,5.216,0,1,1,5.29-5.22A5.256,5.256,0,0,1,1461.06,1685.91Zm-19.34-7.44a2.225,2.225,0,1,1-2.26,2.22A2.241,2.241,0,0,1,1441.72,1678.47Z" transform="translate(-1429 -1655.09)"/>
</svg>
