<svg xmlns="http://www.w3.org/2000/svg" width="184.56" height="123" viewBox="0 0 184.56 123">
  <defs>
    <style>
      .cls-1 {
        fill: #b8aa91;
        fill-rule: evenodd;
      }
    </style>
  </defs>
  <path id="cookie" class="cls-1" d="M1293.46,47c-8.09,0-17.68,7.607-25.66,20.353-1.17,1.874-2.28,3.814-3.31,5.8-4.06,7.83-30.01,18.364-39.83,21.829a228.325,228.325,0,0,1-24.18,8.847c-6.78,1.97-12.25,2.965-16,2.965a11.461,11.461,0,0,1-3.73-.5,68.539,68.539,0,0,0-22.49-4.276c-5.09,0-9.54.828-12.87,2.533a16,16,0,0,0-2.67,1.72l-1.19,1.06-1.04,1.192a12.178,12.178,0,0,0-.92,1.336c-2.39,4.021-2.57,9.262-.54,15.579,2.92,9.1,10.85,11.836,16.16,12.628a22.838,22.838,0,0,0-4.67,9.58,19.987,19.987,0,0,0-.3,2.221l-0.03,1.158a17.576,17.576,0,0,0,1.65,7.4c4.39,9.567,10.32,11.574,14.53,11.574,6.7,0,14.3-5.063,21.41-14.25l0.64-.843a79.956,79.956,0,0,0,6.91-11.056c0.67-1.284,2.44-3.464,7.1-6.558,11.85-7.871,32.52-15.2,32.89-15.337,0.27-.116,26.83-11.758,39.97-11.758a11.609,11.609,0,0,1,3.79.509,69.317,69.317,0,0,0,22.53,4.326c8.52,0,14.75-2.4,18.03-6.942,2.97-4.125,3.36-9.687,1.16-16.531-2.92-9.1-10.85-11.841-16.16-12.632a22.649,22.649,0,0,0,4.73-9.882,17.369,17.369,0,0,0-1.38-10.477C1303.6,49.005,1297.67,47,1293.46,47" transform="translate(-1137.63 -47)"/>
</svg>
