<svg xmlns="http://www.w3.org/2000/svg" width="59.32" height="63.56" viewBox="0 0 59.32 63.56">
  <defs>
    <style>
      .cls-1 {
        fill: #ff6f9e;
        fill-rule: evenodd;
      }
    </style>
  </defs>
  <path id="dog" class="cls-1" d="M1259.66,1671.06l4.19-5.33a26.9,26.9,0,0,1,8.94-12.67l-9.13-.61s-6.86,1.29-6.67,10.5S1259.66,1671.06,1259.66,1671.06Zm51.87,24.5c-1.6-7.54-4.27-11.33-8.73-13.5-12.63-5.27-14.82-23.44-14.91-24.29,0.02,0.19,4.4,17.35,15.79,22.23,1.14-.97,2.79-3.44,3.39-9.68,0.95-9.95,1.75-16.81-17.71-17.13a49.619,49.619,0,0,0-12.07-.54c-8.49,5.27-10.99,12.48-11.63,15.07l-0.1,4.99-10.28,4.42s-2.28,2.95-1.52,6.08c0.73,3.02,1.31,7.59,9.07,8.23v-8.34c-1.61-.28-2.79-1.14-2.79-2.17,0-1.26,1.76-2.28,3.93-2.28s3.93,1.02,3.93,2.28c0,1.03-1.18,1.89-2.79,2.17v8.45a105.319,105.319,0,0,0,11.31-.05l-8.52,24.5h45.02S1313,1702.49,1311.53,1695.56Zm-40.14-22.02c-1.29,0-2.34-1.86-2.34-4.14s1.05-4.14,2.34-4.14,2.35,1.85,2.35,4.14S1272.69,1673.54,1271.39,1673.54Zm6.08-4.15c0-2.29,1.05-4.15,2.35-4.15s2.35,1.86,2.35,4.15-1.05,4.16-2.35,4.16S1277.47,1671.69,1277.47,1669.39Z" transform="translate(-1253.59 -1652.44)"/>
</svg>
