<svg xmlns="http://www.w3.org/2000/svg" width="47" height="51" viewBox="0 0 47 51">
  <defs>
    <style>
      .cls-1 {
        fill: #7be5ff;
        fill-rule: evenodd;
      }
    </style>
  </defs>
  <path id="hamster" class="cls-1" d="M1948.43,1709.8v-11.32a3.09,3.09,0,0,0,0-6.18v-7.48a6.9,6.9,0,1,0-9.96-6.18h-13.61a8.317,8.317,0,0,0,.08-1.12,9.47,9.47,0,1,0-12.55,9v5.78a3.09,3.09,0,0,0,0,6.18v11.32a4.6,4.6,0,0,0,0,9.2,4.5,4.5,0,0,1,4.56-.02h26.92a4.5,4.5,0,0,1,4.56.02A4.6,4.6,0,0,0,1948.43,1709.8Zm-14.19-20.35a2.845,2.845,0,1,1-2.83,2.85A2.836,2.836,0,0,1,1934.24,1689.45Zm-8.62-.64a4.4,4.4,0,1,1-4.37,4.39A4.372,4.372,0,0,1,1925.62,1688.81Zm9.75,19.52-4.28.14-0.17-4.85h-0.94l-0.17,4.85-4.27-.14,0.17-5.1c-3.7-.63-6.69-1.99-8.36-3.77l1.06-.65c2.17,2.11,6.79,3.6,12,3.6s9.83-1.49,12-3.6l1.06,0.65c-1.66,1.77-4.62,3.12-8.28,3.76Z" transform="translate(-1906 -1668)"/>
</svg>
