<svg xmlns="http://www.w3.org/2000/svg" width="180" height="22" viewBox="0 0 180 22">
  <defs>
    <style>
      .cls-1 {
        fill: #a2a2a2;
        fill-rule: evenodd;
      }
    </style>
  </defs>
  <path id="Kowloon_logo" data-name="Kowloon logo" class="cls-1" d="M190.742,1431.57h-9.8v-1.28h3.681l-8.08-9.2-4.618,4.51v4.69h3.494v1.28H167v-1.28h3.494v-18.58H167v-1.28h8.423v1.28h-3.494v12.02l12.449-12.02h-4.056v-1.28h8.767v1.28h-2.933l-8.548,8.36,8.86,10.22h4.274v1.28ZM213.421,1421a11.044,11.044,0,1,1-11.044-11A11,11,0,0,1,213.421,1421Zm-1.466,0a9.578,9.578,0,1,0-9.578,9.63A9.581,9.581,0,0,0,211.955,1421Zm27.733,10.69v0.03h-1.436l-6.333-18.77-6.333,18.77h-1.4l-6.926-20.01h-3.089v-1.28h8.611v1.28h-3.993l6.083,17.9,6.427-19.18h1.279l6.4,19.15,6.084-17.87h-3.962v-1.28H249.7v1.28h-3.12Zm29.167-.12H251.29v-1.28h3.463v-18.58H251.29v-1.28h9.89v1.28h-4.992v18.55H267.42v-4.35h1.435v5.66ZM294.187,1421a11.045,11.045,0,1,1-11.045-11A11,11,0,0,1,294.187,1421Zm-1.467,0a9.578,9.578,0,1,0-9.578,9.63A9.581,9.581,0,0,0,292.72,1421Zm27.109,0a11.045,11.045,0,1,1-11.045-11A11,11,0,0,1,319.829,1421Zm-1.467,0a9.578,9.578,0,1,0-9.578,9.63A9.58,9.58,0,0,0,318.362,1421Zm25.144-9.29v19.86h-1.373l-14.788-18.74v17.46h3.494v1.28h-8.392v-1.28h3.463v-18.58h-3.463v-1.28h4.742l14.882,18.87v-17.59h-3.464v-1.28H347v1.28h-3.494Z" transform="translate(-167 -1410)"/>
</svg>
