<svg xmlns="http://www.w3.org/2000/svg" width="31" height="21" viewBox="0 0 31 21">
  <defs>
    <style>
      .cls-1 {
        fill: #a2a2a2;
        fill-rule: evenodd;
      }
    </style>
  </defs>
  <path id="Contact" class="cls-1" d="M188.54,261.081L178.5,269.89l-10.04-8.809a0.968,0.968,0,0,0-1.362.086,0.957,0.957,0,0,0,.086,1.355l10.679,9.368a0.967,0.967,0,0,0,1.275,0l10.676-9.368a0.957,0.957,0,0,0,.087-1.355,0.969,0.969,0,0,0-1.362-.086h0Zm0,0M191.106,257H165.893A2.89,2.89,0,0,0,163,259.881v15.238A2.89,2.89,0,0,0,165.893,278h25.213A2.89,2.89,0,0,0,194,275.119V259.881A2.89,2.89,0,0,0,191.106,257h0Zm0.965,18.119a0.964,0.964,0,0,1-.965.96H165.893a0.964,0.964,0,0,1-.964-0.96V259.881a0.964,0.964,0,0,1,.964-0.96h25.213a0.964,0.964,0,0,1,.965.96v15.238Zm0,0" transform="translate(-163 -257)"/>
</svg>
