<svg xmlns="http://www.w3.org/2000/svg" width="20" height="33" viewBox="0 0 20 33">
  <defs>
    <style>
      .cls-1 {
        fill: #a2a2a2;
        fill-rule: evenodd;
      }
    </style>
  </defs>
  <path id="FAQ" class="cls-1" d="M26.813,142.627h1.694c4.941,0,8.424-3.479,8.424-7.9a7.861,7.861,0,0,0-8.189-7.851,7.6,7.6,0,0,0-7.577,5.784H19c0.849-4.654,4.8-7.663,9.649-7.663C34.672,125,39,129.276,39,134.73c0,5.313-4,9.4-10.022,9.5l-0.048,4.934H27.049ZM26.3,156.308a1.7,1.7,0,0,1,1.74-1.692,1.727,1.727,0,0,1,1.742,1.692A1.7,1.7,0,0,1,28.036,158,1.668,1.668,0,0,1,26.3,156.308Z" transform="translate(-19 -125)"/>
</svg>
