<svg xmlns="http://www.w3.org/2000/svg" width="28" height="22" viewBox="0 0 28 22">
  <defs>
    <style>
      .cls-1 {
        fill: #fff;
        fill-rule: evenodd;
      }
    </style>
  </defs>
  <path id="Menu_hmburger_icon" data-name="Menu hmburger icon" class="cls-1" d="M41.29,15H18.71A2.56,2.56,0,0,0,16,17.357a2.559,2.559,0,0,0,2.71,2.357H41.29A2.559,2.559,0,0,0,44,17.357,2.559,2.559,0,0,0,41.29,15Zm0,8.643H18.71A2.56,2.56,0,0,0,16,26a2.56,2.56,0,0,0,2.71,2.357H41.29A2.559,2.559,0,0,0,44,26,2.559,2.559,0,0,0,41.29,23.643Zm0,8.643H18.71A2.559,2.559,0,0,0,16,34.643,2.559,2.559,0,0,0,18.71,37H41.29A2.559,2.559,0,0,0,44,34.643,2.559,2.559,0,0,0,41.29,32.286Z" transform="translate(-16 -15)"/>
</svg>
