<svg xmlns="http://www.w3.org/2000/svg" width="288" height="89" viewBox="0 0 288 89">
  <defs>
    <style>
      .cls-1 {
        fill: #fff;
        fill-rule: evenodd;
      }
    </style>
  </defs>
  <path id="Kowloon_logo" data-name="Kowloon logo" class="cls-1" d="M565.988,96.844H550.313V94.812H556.2L543.275,80.143l-7.388,7.186v7.483h5.591v2.032H528V94.812h5.591V65.177H528V63.145h13.478v2.032h-5.591V84.355L555.8,65.177h-6.489V63.145h14.027v2.032h-4.693L544.972,78.508l14.177,16.3h6.839v2.032Zm36.286-16.849A17.671,17.671,0,1,1,584.6,62.452,17.576,17.576,0,0,1,602.274,79.994Zm-2.346,0A15.325,15.325,0,1,0,584.6,95.357,15.3,15.3,0,0,0,599.928,79.994ZM644.3,97.042v0.05H642L631.871,67.159,621.737,97.091h-2.246L608.409,65.177h-4.942V63.145h13.778v2.032h-6.39l9.735,28.545,10.282-30.576h2.047l10.233,30.527,9.734-28.495h-6.339V63.145h13.777v2.032h-4.992Zm46.667-.2h-28.1V94.812h5.541V65.177h-5.541V63.145h15.824v2.032H670.7V94.762h17.971V87.824h2.3v9.019ZM731.5,79.994a17.671,17.671,0,1,1-17.671-17.543A17.576,17.576,0,0,1,731.5,79.994Zm-2.347,0a15.325,15.325,0,1,0-15.324,15.363A15.3,15.3,0,0,0,729.152,79.994Zm43.374,0a17.671,17.671,0,1,1-17.671-17.543A17.576,17.576,0,0,1,772.526,79.994Zm-2.346,0a15.325,15.325,0,1,0-15.325,15.363A15.3,15.3,0,0,0,770.18,79.994Zm40.229-14.817V96.844h-2.2L784.552,66.961V94.812h5.591v2.032H776.715V94.812h5.541V65.177h-5.541V63.145H784.3l23.811,30.081V65.177h-5.541V63.145H816v2.032h-5.591ZM816,52H528v2.032H816V52Zm0,53.957H528v2.032H816v-2.032Zm-145.458,0h-2.105v9.129h2.105v-9.129Zm13.6,19.238c-0.842-6.051-5.389-8.2-9.027-8.2a10.449,10.449,0,0,0-1.427.109,4.242,4.242,0,0,0-8.4,0A10.4,10.4,0,0,0,663.86,117h0c-3.638,0-8.184,2.146-9.026,8.2-1.388,9.971,13.341,15.456,13.969,15.684L669.134,141h0.353c0.919,0,7.91-2.928,11.736-7.287A10.454,10.454,0,0,0,684.141,125.2Zm-14.654-10.1a2.61,2.61,0,0,1,2.6,2.365,8.278,8.278,0,0,0-2.6,1.335,8.289,8.289,0,0,0-2.6-1.335A2.609,2.609,0,0,1,669.487,115.1Zm0,23.932h0s-13.87-5.051-12.685-13.562c0.655-4.709,3.956-6.5,7.058-6.494,2.5,0,4.88,1.165,5.627,2.9v0c0.747-1.731,3.122-2.9,5.627-2.9,3.1,0,6.4,1.786,7.058,6.494C683.357,133.976,669.487,139.027,669.487,139.027Z" transform="translate(-528 -52)"/>
</svg>
