<svg xmlns="http://www.w3.org/2000/svg" xmlns:xlink="http://www.w3.org/1999/xlink" width="22.719" height="37.75" viewBox="0 0 22.719 37.75">
  <defs>
    <style>
      .cls-1 {
        fill: #7bff81;
        fill-rule: evenodd;
        filter: url(#filter);
      }
    </style>
    <filter id="filter" x="17.656" y="369.25" width="22.719" height="37.75" filterUnits="userSpaceOnUse">
      <feFlood result="flood" flood-color="#fff"/>
      <feComposite result="composite" operator="in" in2="SourceGraphic"/>
      <feBlend result="blend" in2="SourceGraphic"/>
    </filter>
  </defs>
  <path id="bird" class="cls-1" d="M33.885,402.764a3.145,3.145,0,0,1,2.131,0c5.712-9.212,6.405-20.605-1.711-24.773,2.735-2.119,3.645-5.152,3.456-8.735-5.749,7.4-11.6,7.211-17.556,0,0.2,3.3.991,6.331,3.461,8.614h0c-8.088,3.941-7.505,15.325-1.43,24.894a3.275,3.275,0,0,1,2.151,0,2.226,2.226,0,0,1,1.756,0c1.178,0.952,1.25,2.419,1.286,4.236h3.477c0.111-1.647-.107-3.25,1.138-4.236A2.364,2.364,0,0,1,33.885,402.764Zm-9.542-14.038a3.6,3.6,0,1,1,0-7.13A3.6,3.6,0,1,1,24.342,388.726Zm4.533,3.547c-0.571,0-2.757-3.15-1.213-3.15h2.443C31.654,389.123,29.457,392.273,28.876,392.273Zm0.5-7.112A3.874,3.874,0,0,1,33.5,381.6a3.6,3.6,0,1,1,0,7.13A3.874,3.874,0,0,1,29.38,385.161Zm-3.7-.989a1.5,1.5,0,1,1-1.717,1.485A1.614,1.614,0,0,1,25.678,384.172Zm6.488,0a1.5,1.5,0,1,1-1.717,1.485A1.614,1.614,0,0,1,32.166,384.172Zm-6.76,19.295a1.172,1.172,0,0,0-1.013.771,1.172,1.172,0,0,0-1.013-.771,1.191,1.191,0,0,0-1.035.821,1.192,1.192,0,0,0-1.035-.821,1.735,1.735,0,0,0,0,3.3,1.192,1.192,0,0,0,1.035-.821,1.192,1.192,0,0,0,1.035.821A1.172,1.172,0,0,0,24.393,406a1.172,1.172,0,0,0,1.013.771A1.736,1.736,0,0,0,25.406,403.467Zm11.537,0a1.172,1.172,0,0,0-1.013.771,1.172,1.172,0,0,0-1.013-.771,1.192,1.192,0,0,0-1.035.821,1.193,1.193,0,0,0-1.036-.821,1.735,1.735,0,0,0,0,3.3,1.193,1.193,0,0,0,1.036-.821,1.192,1.192,0,0,0,1.035.821A1.172,1.172,0,0,0,35.93,406a1.172,1.172,0,0,0,1.013.771A1.736,1.736,0,0,0,36.943,403.467Z" transform="translate(-17.656 -369.25)"/>
</svg>
