<svg xmlns="http://www.w3.org/2000/svg" xmlns:xlink="http://www.w3.org/1999/xlink" width="26" height="29.812" viewBox="0 0 26 29.812">
  <defs>
    <style>
      .cls-1 {
        fill: #8787ff;
        fill-rule: evenodd;
        filter: url(#filter);
      }
    </style>
    <filter id="filter" x="17.938" y="271.813" width="26" height="29.812" filterUnits="userSpaceOnUse">
      <feFlood result="flood" flood-color="#fff"/>
      <feComposite result="composite" operator="in" in2="SourceGraphic"/>
      <feBlend result="blend" in2="SourceGraphic"/>
    </filter>
  </defs>
  <path id="cat" class="cls-1" d="M33.709,283.249a1.09,1.09,0,1,1-1.107,1.09A1.1,1.1,0,0,1,33.709,283.249Zm9.242,13.029a8.593,8.593,0,0,1-1.309-4.445c0-3.382,1.906-4.571,1.984-4.618a0.579,0.579,0,0,0,.208-0.8,0.6,0.6,0,0,0-.813-0.2c-0.1.061-2.565,1.541-2.565,5.622a9.7,9.7,0,0,0,1.447,4.993,4.967,4.967,0,0,1,.827,2.3,1.533,1.533,0,0,1-.354,1.158,0.79,0.79,0,0,1-.549.177,0.5,0.5,0,0,0-.086-0.006H39.556a2.476,2.476,0,0,0,.4-1.353V272.787a0.584,0.584,0,0,0-.434-0.562,0.6,0.6,0,0,0-.667.26l-2.9,4.72c-0.89-.017-3.5-0.037-11.324-0.037-1.661,0-2.483,0-2.9,0l-2.67-5.057a0.6,0.6,0,0,0-.667-0.3,0.587,0.587,0,0,0-.453.567v26.722a2.543,2.543,0,0,0,2.561,2.52h21.2c0.039,0,.094.007,0.163,0.007a1.967,1.967,0,0,0,1.272-.453,2.557,2.557,0,0,0,.773-2.05A5.948,5.948,0,0,0,42.95,296.278ZM24.2,286.893a2.555,2.555,0,1,1,2.6-2.554A2.578,2.578,0,0,1,24.2,286.893Zm6.156,2.96H29.763L29.7,290.947a0.8,0.8,0,0,1-.8.742H28.853a0.792,0.792,0,0,1-.753-0.831l0.059-1H27.553a0.788,0.788,0,1,1,0-1.576h2.8A0.788,0.788,0,1,1,30.354,289.853Zm3.354-2.96a2.555,2.555,0,1,1,2.6-2.554A2.578,2.578,0,0,1,33.709,286.893ZM24.2,283.249a1.09,1.09,0,1,1-1.107,1.09A1.1,1.1,0,0,1,24.2,283.249Z" transform="translate(-17.938 -271.813)"/>
</svg>
