<svg xmlns="http://www.w3.org/2000/svg" width="26.688" height="28.812" viewBox="0 0 26.688 28.812">
  <defs>
    <style>
      .cls-1 {
        fill: #ff6f9e;
        fill-rule: evenodd;
      }
    </style>
  </defs>
  <path id="dog" class="cls-1" d="M16,229.635l1.887-2.412a12.2,12.2,0,0,1,4.021-5.742L17.8,221.2s-3.084.584-3,4.758S16,229.635,16,229.635Zm23.341,11.1c-0.72-3.414-1.92-5.133-3.928-6.114-5.682-2.389-6.667-10.62-6.709-11.008,0.01,0.086,1.978,7.862,7.1,10.075,0.515-.441,1.257-1.559,1.526-4.39,0.428-4.506.789-7.615-7.968-7.761a22.182,22.182,0,0,0-5.433-.242,11.489,11.489,0,0,0-5.23,6.825l-0.046,2.265-4.627,2a3.675,3.675,0,0,0-.684,2.754c0.33,1.369.591,3.436,4.08,3.727v-3.778a1.294,1.294,0,0,1-1.252-.983c0-.57.791-1.033,1.767-1.033s1.768,0.463,1.768,1.033a1.3,1.3,0,0,1-1.253.983v3.83a47.405,47.405,0,0,0,5.087-.023L19.706,250H39.962A59.788,59.788,0,0,0,39.338,240.736Zm-18.06-9.978c-0.583,0-1.055-.841-1.055-1.876s0.472-1.875,1.055-1.875,1.054,0.839,1.054,1.875S21.86,230.758,21.278,230.758Zm2.735-1.877c0-1.04.474-1.884,1.059-1.884s1.058,0.844,1.058,1.884-0.474,1.883-1.058,1.883S24.012,229.92,24.012,228.881Z" transform="translate(-13.281 -221.188)"/>
</svg>
