<svg xmlns="http://www.w3.org/2000/svg" xmlns:xlink="http://www.w3.org/1999/xlink" width="27.219" height="27.187" viewBox="0 0 27.219 27.187">
  <defs>
    <style>
      .cls-1 {
        fill: #ffb93f;
        fill-rule: evenodd;
        filter: url(#filter);
      }
    </style>
    <filter id="filter" x="16.625" y="324.563" width="27.219" height="27.187" filterUnits="userSpaceOnUse">
      <feFlood result="flood" flood-color="#fff"/>
      <feComposite result="composite" operator="in" in2="SourceGraphic"/>
      <feBlend result="blend" in2="SourceGraphic"/>
    </filter>
  </defs>
  <path id="fish" class="cls-1" d="M42.453,333.821a8.251,8.251,0,0,0-3.678,1.9c-0.61.527-1.4,0.488-1.625-.282-0.9-3.106.607-7.622,0.607-7.622,1.668-4.167-4.361-3.144-4.361-3.144-11.141,2.015-14.41,7.728-15.342,10.394a19.479,19.479,0,0,1-1.247,2.547c-0.03.054-.058,0.107-0.084,0.16-0.354.718,0.247,1.888,0.686,2.56a7.63,7.63,0,0,1,.75,1.4c2.919,9.019,16.123,9.934,16.123,9.934,2.288,0.289,3.163-.459,3.479-1.234,0.3-.742-0.222-1.987-0.489-2.742a10.923,10.923,0,0,1-.008-6.531,0.834,0.834,0,0,1,1.506-.325,9.543,9.543,0,0,0,4.016,2.5c0.782,0.2,1.215-.519,1.012-1.293a16.215,16.215,0,0,1-.226-6.931A0.983,0.983,0,0,0,42.453,333.821ZM21.61,341.505a2.587,2.587,0,1,1,2.618-2.587A2.6,2.6,0,0,1,21.61,341.505ZM21.5,337.026a0.994,0.994,0,1,1-1.006.993A1,1,0,0,1,21.5,337.026Z" transform="translate(-16.625 -324.563)"/>
</svg>
