<svg xmlns="http://www.w3.org/2000/svg" xmlns:xlink="http://www.w3.org/1999/xlink" width="27" height="30" viewBox="0 0 27 30">
  <defs>
    <style>
      .cls-1 {
        fill: #7be5ff;
        fill-rule: evenodd;
        filter: url(#filter);
      }
    </style>
    <filter id="filter" x="15" y="430" width="27" height="30" filterUnits="userSpaceOnUse">
      <feFlood result="flood" flood-color="#fff"/>
      <feComposite result="composite" operator="in" in2="SourceGraphic"/>
      <feBlend result="blend" in2="SourceGraphic"/>
    </filter>
  </defs>
  <path id="hamster" class="cls-1" d="M39.373,454.59v-6.661a1.819,1.819,0,0,0,0-3.637v-4.4a4.079,4.079,0,0,0,2.185-3.635,3.953,3.953,0,1,0-7.9,0H25.837a5.806,5.806,0,0,0,.041-0.66A5.442,5.442,0,1,0,15,435.6a5.588,5.588,0,0,0,3.673,5.292v3.4a1.819,1.819,0,0,0,0,3.637v6.661a2.706,2.706,0,0,0,0,5.41,2.558,2.558,0,0,0,1.321-.369,2.535,2.535,0,0,0,1.3.359H36.755a2.535,2.535,0,0,0,1.3-.359,2.557,2.557,0,0,0,1.321.369A2.706,2.706,0,0,0,39.373,454.59Zm-8.152-11.97a1.673,1.673,0,1,1-1.625,1.672A1.648,1.648,0,0,1,31.221,442.62Zm-4.948-.381a2.586,2.586,0,1,1-2.511,2.585A2.549,2.549,0,0,1,26.273,442.239Zm5.6,11.483-2.457.087-0.1-2.859c-0.1,0-.2.006-0.294,0.006-0.084,0-.166,0-0.249,0l-0.092,2.856-2.457-.084,0.1-3a8.6,8.6,0,0,1-4.8-2.218l0.609-.381c1.249,1.238,3.9,2.117,6.9,2.117s5.645-.88,6.894-2.118l0.61,0.382a8.555,8.555,0,0,1-4.757,2.21Z" transform="translate(-15 -430)"/>
</svg>
